<mxfile host="app.diagrams.net" modified="2024-05-20T16:49:35.164Z" agent="Mozilla/5.0 (Windows NT 10.0; Win64; x64) AppleWebKit/537.36 (KHTML, like Gecko) Chrome/125.0.0.0 Safari/537.36 Edg/125.0.0.0" etag="48F0Edj3C1EgqyaRTxrh" version="24.4.4" type="github">
  <diagram id="kgpKYQtTHZ0yAKxKKP6v" name="Page-1">
    <mxGraphModel dx="1973" dy="656" grid="1" gridSize="10" guides="1" tooltips="1" connect="1" arrows="1" fold="1" page="1" pageScale="1" pageWidth="850" pageHeight="1100" math="0" shadow="0">
      <root>
        <mxCell id="0" />
        <mxCell id="1" parent="0" />
        <mxCell id="3nuBFxr9cyL0pnOWT2aG-1" value="Siklus Penggajian Rental Mobil JAZZYÂ " style="shape=table;childLayout=tableLayout;startSize=40;collapsible=0;recursiveResize=0;expand=0;fillColor=none;fontStyle=1" parent="1" vertex="1">
          <mxGeometry x="-810" y="20" width="1590" height="1220" as="geometry" />
        </mxCell>
        <mxCell id="3nuBFxr9cyL0pnOWT2aG-3" value="" style="shape=tableRow;horizontal=0;swimlaneHead=0;swimlaneBody=0;top=0;left=0;bottom=0;right=0;fillColor=none;points=[[0,0.5],[1,0.5]];portConstraint=eastwest;startSize=0;collapsible=0;recursiveResize=0;expand=0;fontStyle=1;" parent="3nuBFxr9cyL0pnOWT2aG-1" vertex="1">
          <mxGeometry y="40" width="1590" height="1180" as="geometry" />
        </mxCell>
        <mxCell id="3V2eeLFM8Dx3j6_8eiKb-36" value="Bendahara" style="swimlane;swimlaneHead=0;swimlaneBody=0;connectable=0;fillColor=none;startSize=30;collapsible=0;recursiveResize=0;expand=0;fontStyle=1;" vertex="1" parent="3nuBFxr9cyL0pnOWT2aG-3">
          <mxGeometry width="290" height="1180" as="geometry">
            <mxRectangle width="290" height="1180" as="alternateBounds" />
          </mxGeometry>
        </mxCell>
        <mxCell id="3nuBFxr9cyL0pnOWT2aG-6" value="Start" style="rounded=1;whiteSpace=wrap;html=1;arcSize=50;strokeWidth=2;" parent="3V2eeLFM8Dx3j6_8eiKb-36" vertex="1">
          <mxGeometry x="60" y="50" width="140" height="60" as="geometry" />
        </mxCell>
        <mxCell id="3V2eeLFM8Dx3j6_8eiKb-46" value="Mengisi Absen" style="verticalLabelPosition=middle;verticalAlign=middle;html=1;shape=trapezoid;perimeter=trapezoidPerimeter;whiteSpace=wrap;size=0.23;arcSize=10;flipV=1;labelPosition=center;align=center;strokeWidth=2;" vertex="1" parent="3V2eeLFM8Dx3j6_8eiKb-36">
          <mxGeometry x="-2.5" y="400" width="135" height="80" as="geometry" />
        </mxCell>
        <mxCell id="3V2eeLFM8Dx3j6_8eiKb-47" value="Buku Absen" style="strokeWidth=2;html=1;shape=mxgraph.flowchart.document2;whiteSpace=wrap;size=0.25;" vertex="1" parent="3V2eeLFM8Dx3j6_8eiKb-36">
          <mxGeometry x="10" y="220" width="110" height="80" as="geometry" />
        </mxCell>
        <mxCell id="3V2eeLFM8Dx3j6_8eiKb-48" value="Buku Utang" style="strokeWidth=2;html=1;shape=mxgraph.flowchart.document2;whiteSpace=wrap;size=0.25;" vertex="1" parent="3V2eeLFM8Dx3j6_8eiKb-36">
          <mxGeometry x="160" y="220" width="110" height="80" as="geometry" />
        </mxCell>
        <mxCell id="3V2eeLFM8Dx3j6_8eiKb-49" value="" style="strokeWidth=2;html=1;shape=mxgraph.flowchart.annotation_2;align=left;labelPosition=right;pointerEvents=1;rotation=90;" vertex="1" parent="3V2eeLFM8Dx3j6_8eiKb-36">
          <mxGeometry x="75" y="110" width="110" height="110" as="geometry" />
        </mxCell>
        <mxCell id="3V2eeLFM8Dx3j6_8eiKb-41" value="Admin" style="swimlane;swimlaneHead=0;swimlaneBody=0;connectable=0;fillColor=none;startSize=30;collapsible=0;recursiveResize=0;expand=0;fontStyle=1;" vertex="1" parent="3nuBFxr9cyL0pnOWT2aG-3">
          <mxGeometry x="290" width="208" height="1180" as="geometry">
            <mxRectangle width="208" height="1180" as="alternateBounds" />
          </mxGeometry>
        </mxCell>
        <mxCell id="3nuBFxr9cyL0pnOWT2aG-4" value="Office Boy (OB)" style="swimlane;swimlaneHead=0;swimlaneBody=0;connectable=0;fillColor=none;startSize=30;collapsible=0;recursiveResize=0;expand=0;fontStyle=1;" parent="3nuBFxr9cyL0pnOWT2aG-3" vertex="1">
          <mxGeometry x="498" width="290" height="1180" as="geometry">
            <mxRectangle width="290" height="1180" as="alternateBounds" />
          </mxGeometry>
        </mxCell>
        <mxCell id="3nuBFxr9cyL0pnOWT2aG-8" value="Petugas Garansi" style="swimlane;swimlaneHead=0;swimlaneBody=0;connectable=0;fillColor=none;startSize=30;collapsible=0;recursiveResize=0;expand=0;fontStyle=1;" parent="3nuBFxr9cyL0pnOWT2aG-3" vertex="1">
          <mxGeometry x="788" width="401" height="1180" as="geometry">
            <mxRectangle width="401" height="1180" as="alternateBounds" />
          </mxGeometry>
        </mxCell>
        <mxCell id="3nuBFxr9cyL0pnOWT2aG-11" value="Pemilik" style="swimlane;swimlaneHead=0;swimlaneBody=0;connectable=0;fillColor=none;startSize=30;collapsible=0;recursiveResize=0;expand=0;fontStyle=1;" parent="3nuBFxr9cyL0pnOWT2aG-3" vertex="1">
          <mxGeometry x="1189" width="401" height="1180" as="geometry">
            <mxRectangle width="401" height="1180" as="alternateBounds" />
          </mxGeometry>
        </mxCell>
      </root>
    </mxGraphModel>
  </diagram>
</mxfile>
